<!DOCTYPE svg [<!ENTITY nbsp "&#160;">]><svg width="483pt" height="400pt" viewBox="0.00 0.00 483.24 400.00" xmlns="http://www.w3.org/2000/svg" xmlns:xlink="http://www.w3.org/1999/xlink">
<g id="graph0" class="graph" transform="scale(1 1) rotate(0) translate(4 396)">
<title>state transitions</title>
<polygon fill="#ffffff" stroke="transparent" points="-4,4 -4,-396 479.2425,-396 479.2425,4 -4,4"></polygon>
<!-- initial -->
<g id="node1" class="node state initial">
<title>initial</title>
<ellipse fill="#000000" stroke="#000000" stroke-width="2" cx="298" cy="-386.5" rx="5.5" ry="5.5"></ellipse>
</g>
<!-- SERVO_DISABLED -->
<g id="node2" class="node state regular">
<title>SERVO_DISABLED</title>
<polygon fill="#ffffff" fill-opacity="0.003922" stroke="transparent" stroke-width="2" points="363,-353 233,-353 233,-317 363,-317 363,-353"></polygon>
<text text-anchor="start" x="243.9904" y="-331.2" font-family="Helvetica,sans-Serif" font-size="12.00" fill="#000000">SERVO_DISABLED</text>
<path fill="none" stroke="#000000" stroke-width="2" d="M245.3333,-318C245.3333,-318 350.6667,-318 350.6667,-318 356.3333,-318 362,-323.6667 362,-329.3333 362,-329.3333 362,-340.6667 362,-340.6667 362,-346.3333 356.3333,-352 350.6667,-352 350.6667,-352 245.3333,-352 245.3333,-352 239.6667,-352 234,-346.3333 234,-340.6667 234,-340.6667 234,-329.3333 234,-329.3333 234,-323.6667 239.6667,-318 245.3333,-318"></path>
</g>
<!-- initial&#45;&gt;SERVO_DISABLED -->
<g id="edge1" class="edge transition">
<title>initial-&gt;SERVO_DISABLED</title>
<path fill="none" stroke="#000000" d="M298,-380.9886C298,-376.6293 298,-370.1793 298,-363.4801"></path>
<polygon fill="#000000" stroke="#000000" points="301.5001,-363.0122 298,-353.0122 294.5001,-363.0122 301.5001,-363.0122"></polygon>
<text text-anchor="start" x="298" y="-364" font-family="Helvetica,sans-Serif" font-size="10.00" fill="#000000">begin() &nbsp;&nbsp;</text>
</g>
<!-- SERVO_READY -->
<g id="node3" class="node state regular">
<title>SERVO_READY</title>
<polygon fill="#ffffff" fill-opacity="0.003922" stroke="transparent" stroke-width="2" points="201,-277 89,-277 89,-241 201,-241 201,-277"></polygon>
<text text-anchor="start" x="99.9946" y="-255.2" font-family="Helvetica,sans-Serif" font-size="12.00" fill="#000000">SERVO_READY</text>
<path fill="none" stroke="#000000" stroke-width="2" d="M101.3333,-242C101.3333,-242 188.6667,-242 188.6667,-242 194.3333,-242 200,-247.6667 200,-253.3333 200,-253.3333 200,-264.6667 200,-264.6667 200,-270.3333 194.3333,-276 188.6667,-276 188.6667,-276 101.3333,-276 101.3333,-276 95.6667,-276 90,-270.3333 90,-264.6667 90,-264.6667 90,-253.3333 90,-253.3333 90,-247.6667 95.6667,-242 101.3333,-242"></path>
</g>
<!-- SERVO_DISABLED&#45;&gt;SERVO_READY -->
<g id="edge2" class="edge transition">
<title>SERVO_DISABLED-&gt;SERVO_READY</title>
<path fill="none" stroke="#000000" d="M232.6765,-331.2815C198.285,-327.8728 160.9235,-321.3702 149.538,-309 144.2025,-303.203 142.069,-295.2661 141.5416,-287.4232"></path>
<polygon fill="#000000" stroke="#000000" points="145.042,-287.3885 141.6391,-277.355 138.0423,-287.3206 145.042,-287.3885"></polygon>
<text text-anchor="start" x="150" y="-300" font-family="Helvetica,sans-Serif" font-size="10.00" fill="#000000">enableAndHome() &nbsp;&nbsp;</text>
<text text-anchor="start" x="150" y="-288" font-family="Helvetica,sans-Serif" font-size="10.00" fill="#000000">thisIsHome() &nbsp;&nbsp;</text>
</g>
<!-- SERVO_ERROR -->
<g id="node5" class="node state regular">
<title>SERVO_ERROR</title>
<polygon fill="#ffffff" fill-opacity="0.003922" stroke="transparent" stroke-width="2" points="360,-125 246,-125 246,-89 360,-89 360,-125"></polygon>
<text text-anchor="start" x="256.9986" y="-103.2" font-family="Helvetica,sans-Serif" font-size="12.00" fill="#000000">SERVO_ERROR</text>
<path fill="none" stroke="#000000" stroke-width="2" d="M258.3333,-90C258.3333,-90 347.6667,-90 347.6667,-90 353.3333,-90 359,-95.6667 359,-101.3333 359,-101.3333 359,-112.6667 359,-112.6667 359,-118.3333 353.3333,-124 347.6667,-124 347.6667,-124 258.3333,-124 258.3333,-124 252.6667,-124 247,-118.3333 247,-112.6667 247,-112.6667 247,-101.3333 247,-101.3333 247,-95.6667 252.6667,-90 258.3333,-90"></path>
</g>
<!-- SERVO_DISABLED&#45;&gt;SERVO_ERROR -->
<g id="edge9" class="edge transition">
<title>SERVO_DISABLED-&gt;SERVO_ERROR</title>
<path fill="none" stroke="#000000" d="M334.0098,-316.93C348.8688,-307.3336 364.377,-293.9753 372,-277 386.4389,-244.8467 355.5724,-160.9772 351,-153 346.7096,-145.5146 340.8322,-138.4787 334.6605,-132.2678"></path>
<polygon fill="#000000" stroke="#000000" points="337.0334,-129.6947 327.3576,-125.3785 332.2299,-134.7865 337.0334,-129.6947"></polygon>
<text text-anchor="start" x="374" y="-212" font-family="Helvetica,sans-Serif" font-size="10.00" fill="#000000">safeState() &nbsp;&nbsp;</text>
</g>
<!-- SERVO_READY&#45;&gt;SERVO_DISABLED -->
<g id="edge5" class="edge transition">
<title>SERVO_READY-&gt;SERVO_DISABLED</title>
<path fill="none" stroke="#000000" d="M201.3431,-269.9946C214.465,-273.7443 228.0764,-278.6508 240,-285 240.9344,-285.4976 255.3045,-297.8842 269.5055,-310.2027"></path>
<polygon fill="#000000" stroke="#000000" points="267.4458,-313.0495 277.2912,-316.9634 272.0354,-307.7641 267.4458,-313.0495"></polygon>
<text text-anchor="start" x="268" y="-294" font-family="Helvetica,sans-Serif" font-size="10.00" fill="#000000">disable() &nbsp;&nbsp;</text>
</g>
<!-- SERVO_READY&#45;&gt;SERVO_READY -->
<g id="edge7" class="edge transition">
<title>SERVO_READY-&gt;SERVO_READY</title>
<path fill="none" stroke="#000000" d="M201.092,-265.951C213.7451,-265.3248 223,-263.0078 223,-259 223,-256.182 218.4245,-254.1999 211.3094,-253.0537"></path>
<polygon fill="#000000" stroke="#000000" points="211.3865,-249.5445 201.092,-252.049 210.7014,-256.5109 211.3865,-249.5445"></polygon>
<text text-anchor="start" x="223" y="-262" font-family="Helvetica,sans-Serif" font-size="10.00" fill="#000000">moveToMin() &nbsp;&nbsp;</text>
<text text-anchor="start" x="223" y="-250" font-family="Helvetica,sans-Serif" font-size="10.00" fill="#000000">moveToMax() &nbsp;&nbsp;</text>
</g>
<!-- SERVO_RUNNING -->
<g id="node4" class="node state regular">
<title>SERVO_RUNNING</title>
<polygon fill="#ffffff" fill-opacity="0.003922" stroke="transparent" stroke-width="2" points="126,-189 0,-189 0,-153 126,-153 126,-189"></polygon>
<text text-anchor="start" x="10.6698" y="-167.2" font-family="Helvetica,sans-Serif" font-size="12.00" fill="#000000">SERVO_RUNNING</text>
<path fill="none" stroke="#000000" stroke-width="2" d="M12.3333,-154C12.3333,-154 113.6667,-154 113.6667,-154 119.3333,-154 125,-159.6667 125,-165.3333 125,-165.3333 125,-176.6667 125,-176.6667 125,-182.3333 119.3333,-188 113.6667,-188 113.6667,-188 12.3333,-188 12.3333,-188 6.6667,-188 1,-182.3333 1,-176.6667 1,-176.6667 1,-165.3333 1,-165.3333 1,-159.6667 6.6667,-154 12.3333,-154"></path>
</g>
<!-- SERVO_READY&#45;&gt;SERVO_RUNNING -->
<g id="edge3" class="edge transition">
<title>SERVO_READY-&gt;SERVO_RUNNING</title>
<path fill="none" stroke="#000000" d="M88.8607,-247.6519C74.9624,-243.6619 62.8095,-238.7224 58.555,-233 51.3839,-223.3547 51.2938,-210.3668 53.4807,-198.7704"></path>
<polygon fill="#000000" stroke="#000000" points="56.8802,-199.6032 55.868,-189.0568 50.0824,-197.9325 56.8802,-199.6032"></polygon>
<text text-anchor="start" x="59" y="-212" font-family="Helvetica,sans-Serif" font-size="10.00" fill="#000000">startMotion() &nbsp;&nbsp;</text>
</g>
<!-- SERVO_READY&#45;&gt;SERVO_ERROR -->
<g id="edge10" class="edge transition">
<title>SERVO_READY-&gt;SERVO_ERROR</title>
<path fill="none" stroke="#000000" d="M201.2869,-240.8484C206.7146,-238.4563 212.0398,-235.8381 217,-233 243.5728,-217.7957 251.9568,-213.7331 270,-189 281.8336,-172.7788 290.1914,-151.7182 295.535,-135.0026"></path>
<polygon fill="#000000" stroke="#000000" points="298.9432,-135.8229 298.4768,-125.2383 292.2408,-133.8035 298.9432,-135.8229"></polygon>
<text text-anchor="start" x="289" y="-168" font-family="Helvetica,sans-Serif" font-size="10.00" fill="#000000">safeState() &nbsp;&nbsp;</text>
</g>
<!-- SERVO_RUNNING&#45;&gt;SERVO_DISABLED -->
<g id="edge6" class="edge transition">
<title>SERVO_RUNNING-&gt;SERVO_DISABLED</title>
<path fill="none" stroke="#000000" d="M126.3386,-176.9844C154.6103,-180.8464 188.0126,-187.0753 217,-197 256.1297,-210.3972 271.6193,-210.0013 299,-241 317.7704,-262.2507 324.1499,-276.5163 315.4665,-307.3392"></path>
<polygon fill="#000000" stroke="#000000" points="312.0978,-306.3847 312.4521,-316.9736 318.7785,-308.475 312.0978,-306.3847"></polygon>
<text text-anchor="start" x="320" y="-256" font-family="Helvetica,sans-Serif" font-size="10.00" fill="#000000">disable() &nbsp;&nbsp;</text>
</g>
<!-- SERVO_RUNNING&#45;&gt;SERVO_READY -->
<g id="edge4" class="edge transition">
<title>SERVO_RUNNING-&gt;SERVO_READY</title>
<path fill="none" stroke="#000000" d="M114.7689,-189.0666C118.1319,-191.4107 121.2617,-194.0443 124,-197 132.6618,-206.3495 137.7646,-219.406 140.7645,-231.1273"></path>
<polygon fill="#000000" stroke="#000000" points="137.3563,-231.9262 142.8959,-240.9574 144.1973,-230.4428 137.3563,-231.9262"></polygon>
<text text-anchor="start" x="142" y="-224" font-family="Helvetica,sans-Serif" font-size="10.00" fill="#000000">stopMotion() &nbsp;&nbsp;</text>
<text text-anchor="start" x="142" y="-212" font-family="Helvetica,sans-Serif" font-size="10.00" fill="#000000">moveToMin() &nbsp;&nbsp;</text>
<text text-anchor="start" x="142" y="-200" font-family="Helvetica,sans-Serif" font-size="10.00" fill="#000000">moveToMax() &nbsp;&nbsp;</text>
</g>
<!-- SERVO_RUNNING&#45;&gt;SERVO_RUNNING -->
<g id="edge8" class="edge transition">
<title>SERVO_RUNNING-&gt;SERVO_RUNNING</title>
<path fill="none" stroke="#000000" d="M126.0165,-176.7711C138.8268,-176.1425 148,-174.2188 148,-171 148,-168.7368 143.4649,-167.1139 136.3191,-166.1312"></path>
<polygon fill="#000000" stroke="#000000" points="136.2838,-162.6148 126.0165,-165.2289 135.673,-169.5881 136.2838,-162.6148"></polygon>
<text text-anchor="start" x="148" y="-168" font-family="Helvetica,sans-Serif" font-size="10.00" fill="#000000">applyNewSettingsNow() &nbsp;&nbsp;</text>
</g>
<!-- SERVO_RUNNING&#45;&gt;SERVO_ERROR -->
<g id="edge11" class="edge transition">
<title>SERVO_RUNNING-&gt;SERVO_ERROR</title>
<path fill="none" stroke="#000000" d="M126.0572,-154.1848C159.8073,-145.1847 201.3805,-134.0985 235.7476,-124.934"></path>
<polygon fill="#000000" stroke="#000000" points="236.9394,-128.2386 245.6999,-122.28 235.1357,-121.4749 236.9394,-128.2386"></polygon>
<text text-anchor="start" x="205" y="-136" font-family="Helvetica,sans-Serif" font-size="10.00" fill="#000000">safeState() &nbsp;&nbsp;</text>
</g>
<!-- i_note_tr_SERVO_ERROR_final_12 -->
<!-- SERVO_ERROR&#45;&gt;i_note_tr_SERVO_ERROR_final_12 -->
<g id="edge12" class="edge">
<title>SERVO_ERROR-&gt;i_note_tr_SERVO_ERROR_final_12</title>
<path fill="none" stroke="#000000" d="M303,-88.68C303,-80.7409 303,-73.0275 303,-72.0943"></path>
</g>
<!-- final -->
<g id="node6" class="node state final">
<title>final</title>
<ellipse fill="#000000" stroke="#000000" stroke-width="2" cx="303" cy="-22" rx="5.5" ry="5.5"></ellipse>
<ellipse fill="none" stroke="#000000" stroke-width="2" cx="303" cy="-22" rx="9.5" ry="9.5"></ellipse>
</g>
<!-- i_note_tr_SERVO_ERROR_final_12&#45;&gt;final -->
<g id="edge13" class="edge">
<title>i_note_tr_SERVO_ERROR_final_12-&gt;final</title>
<path fill="none" stroke="#000000" d="M303,-71.8566C303,-70.2277 303,-55.0279 303,-41.8348"></path>
<polygon fill="#000000" stroke="#000000" points="306.5001,-41.5665 303,-31.5666 299.5001,-41.5666 306.5001,-41.5665"></polygon>
<text text-anchor="middle" x="304.3895" y="-55" font-family="Helvetica,sans-Serif" font-size="10.00" fill="#000000"> </text>
</g>
<!-- note_tr_SERVO_ERROR_final_12 -->
<g id="node8" class="node">
<title>note_tr_SERVO_ERROR_final_12</title>
<polygon fill="#ffffcc" stroke="#000000" points="469.4858,-44 334.5142,-44 334.5142,0 475.4858,0 475.4858,-38 469.4858,-44"></polygon>
<polyline fill="none" stroke="#000000" points="469.4858,-44 469.4858,-38 "></polyline>
<polyline fill="none" stroke="#000000" points="475.4858,-38 469.4858,-38 "></polyline>
<text text-anchor="start" x="342.7575" y="-31" font-family="Helvetica,sans-Serif" font-size="10.00" fill="#000000">SERVO_ERROR can only</text>
<text text-anchor="start" x="342.7575" y="-19" font-family="Helvetica,sans-Serif" font-size="10.00" fill="#000000">be cleared by removing</text>
<text text-anchor="start" x="342.7575" y="-7" font-family="Helvetica,sans-Serif" font-size="10.00" fill="#000000">power and resetting ESP32.</text>
</g>
<!-- i_note_tr_SERVO_ERROR_final_12&#45;&gt;note_tr_SERVO_ERROR_final_12 -->
<g id="edge14" class="edge">
<title>i_note_tr_SERVO_ERROR_final_12-&gt;note_tr_SERVO_ERROR_final_12</title>
<path fill="none" stroke="#000000" stroke-dasharray="5,2" d="M303.0739,-71.9638C304.7148,-71.1594 333.3785,-57.1086 359.8901,-44.1127"></path>
</g>
</g>
</svg>