<!DOCTYPE svg [<!ENTITY nbsp "&#160;">]><svg width="381pt" height="311pt" viewBox="0.00 0.00 381.19 311.00" xmlns="http://www.w3.org/2000/svg" xmlns:xlink="http://www.w3.org/1999/xlink">
<g id="graph0" class="graph" transform="scale(1 1) rotate(0) translate(4 307)">
<title>state transitions</title>
<polygon fill="#ffffff" stroke="transparent" points="-4,4 -4,-307 377.1882,-307 377.1882,4 -4,4"></polygon>
<!-- initial -->
<g id="node1" class="node state initial">
<title>initial</title>
<ellipse fill="#000000" stroke="#000000" stroke-width="2" cx="213.5192" cy="-297.5" rx="5.5" ry="5.5"></ellipse>
</g>
<!-- UNDEFINED -->
<g id="node2" class="node state regular">
<title>UNDEFINED</title>
<polygon fill="#ffffff" fill-opacity="0.003922" stroke="transparent" stroke-width="2" points="259.0192,-264 168.0192,-264 168.0192,-228 259.0192,-228 259.0192,-264"></polygon>
<text text-anchor="start" x="179.0266" y="-242.2" font-family="Helvetica,sans-Serif" font-size="12.00" fill="#000000">UNDEFINED</text>
<path fill="none" stroke="#000000" stroke-width="2" d="M180.3525,-229C180.3525,-229 246.6858,-229 246.6858,-229 252.3525,-229 258.0192,-234.6667 258.0192,-240.3333 258.0192,-240.3333 258.0192,-251.6667 258.0192,-251.6667 258.0192,-257.3333 252.3525,-263 246.6858,-263 246.6858,-263 180.3525,-263 180.3525,-263 174.6858,-263 169.0192,-257.3333 169.0192,-251.6667 169.0192,-251.6667 169.0192,-240.3333 169.0192,-240.3333 169.0192,-234.6667 174.6858,-229 180.3525,-229"></path>
</g>
<!-- initial&#45;&gt;UNDEFINED -->
<g id="edge1" class="edge transition">
<title>initial-&gt;UNDEFINED</title>
<path fill="none" stroke="#000000" d="M213.5192,-291.9886C213.5192,-287.6293 213.5192,-281.1793 213.5192,-274.4801"></path>
<polygon fill="#000000" stroke="#000000" points="217.0192,-274.0122 213.5192,-264.0122 210.0192,-274.0122 217.0192,-274.0122"></polygon>
<text text-anchor="start" x="213.5192" y="-275" font-family="Helvetica,sans-Serif" font-size="10.00" fill="#000000">begin() &nbsp;&nbsp;</text>
</g>
<!-- READY -->
<g id="node3" class="node state regular">
<title>READY</title>
<polygon fill="#ffffff" fill-opacity="0.003922" stroke="transparent" stroke-width="2" points="106.0192,-188 43.0192,-188 43.0192,-152 106.0192,-152 106.0192,-188"></polygon>
<text text-anchor="start" x="54.3522" y="-166.2" font-family="Helvetica,sans-Serif" font-size="12.00" fill="#000000">READY</text>
<path fill="none" stroke="#000000" stroke-width="2" d="M55.3525,-153C55.3525,-153 93.6858,-153 93.6858,-153 99.3525,-153 105.0192,-158.6667 105.0192,-164.3333 105.0192,-164.3333 105.0192,-175.6667 105.0192,-175.6667 105.0192,-181.3333 99.3525,-187 93.6858,-187 93.6858,-187 55.3525,-187 55.3525,-187 49.6858,-187 44.0192,-181.3333 44.0192,-175.6667 44.0192,-175.6667 44.0192,-164.3333 44.0192,-164.3333 44.0192,-158.6667 49.6858,-153 55.3525,-153"></path>
</g>
<!-- UNDEFINED&#45;&gt;READY -->
<g id="edge2" class="edge transition">
<title>UNDEFINED-&gt;READY</title>
<path fill="none" stroke="#000000" d="M167.7667,-244.2538C129.1099,-241.7023 78.0173,-235.4271 65.0572,-220 59.8628,-213.8169 59.5841,-205.6748 61.3729,-197.7609"></path>
<polygon fill="#000000" stroke="#000000" points="64.7752,-198.6153 64.5302,-188.0233 58.1165,-196.4563 64.7752,-198.6153"></polygon>
<text text-anchor="start" x="65.5192" y="-211" font-family="Helvetica,sans-Serif" font-size="10.00" fill="#000000">enableAndHome() &nbsp;&nbsp;</text>
<text text-anchor="start" x="65.5192" y="-199" font-family="Helvetica,sans-Serif" font-size="10.00" fill="#000000">thisIsHome() &nbsp;&nbsp;</text>
</g>
<!-- READY&#45;&gt;UNDEFINED -->
<g id="edge4" class="edge transition">
<title>READY-&gt;UNDEFINED</title>
<path fill="none" stroke="#000000" d="M106.2159,-176.8022C121.7377,-180.9559 140.3095,-187.1932 155.5192,-196 169.2222,-203.9345 169.8757,-209.6394 181.8502,-220 182.415,-220.4887 182.9868,-220.9811 183.564,-221.476"></path>
<polygon fill="#000000" stroke="#000000" points="181.3496,-224.187 191.2496,-227.9608 185.8638,-218.837 181.3496,-224.187"></polygon>
<text text-anchor="start" x="182.5192" y="-205" font-family="Helvetica,sans-Serif" font-size="10.00" fill="#000000">disable() &nbsp;&nbsp;</text>
</g>
<!-- READY&#45;&gt;READY -->
<g id="edge5" class="edge transition">
<title>READY-&gt;READY</title>
<path fill="none" stroke="#000000" d="M106.1091,-177.1037C118.1006,-177.3777 128.0192,-175.0098 128.0192,-170 128.0192,-166.5558 123.3311,-164.3603 116.5044,-163.4134"></path>
<polygon fill="#000000" stroke="#000000" points="116.2707,-159.8976 106.1091,-162.8963 115.9229,-166.8889 116.2707,-159.8976"></polygon>
<text text-anchor="start" x="128.0192" y="-173" font-family="Helvetica,sans-Serif" font-size="10.00" fill="#000000">moveToMin() &nbsp;&nbsp;</text>
<text text-anchor="start" x="128.0192" y="-161" font-family="Helvetica,sans-Serif" font-size="10.00" fill="#000000">moveToMax() &nbsp;&nbsp;</text>
</g>
<!-- PATTERN -->
<g id="node4" class="node state regular">
<title>PATTERN</title>
<polygon fill="#ffffff" fill-opacity="0.003922" stroke="transparent" stroke-width="2" points="189.0192,-36 112.0192,-36 112.0192,0 189.0192,0 189.0192,-36"></polygon>
<text text-anchor="start" x="123.0214" y="-14.2" font-family="Helvetica,sans-Serif" font-size="12.00" fill="#000000">PATTERN</text>
<path fill="none" stroke="#000000" stroke-width="2" d="M124.3525,-1C124.3525,-1 176.6858,-1 176.6858,-1 182.3525,-1 188.0192,-6.6667 188.0192,-12.3333 188.0192,-12.3333 188.0192,-23.6667 188.0192,-23.6667 188.0192,-29.3333 182.3525,-35 176.6858,-35 176.6858,-35 124.3525,-35 124.3525,-35 118.6858,-35 113.0192,-29.3333 113.0192,-23.6667 113.0192,-23.6667 113.0192,-12.3333 113.0192,-12.3333 113.0192,-6.6667 118.6858,-1 124.3525,-1"></path>
</g>
<!-- READY&#45;&gt;PATTERN -->
<g id="edge3" class="edge transition">
<title>READY-&gt;PATTERN</title>
<path fill="none" stroke="#000000" d="M48.8469,-151.9208C21.5529,-130.4534 -14.9074,-93.8048 6.8452,-64 18.2768,-48.3366 64.5543,-35.4029 101.541,-27.2816"></path>
<polygon fill="#000000" stroke="#000000" points="102.6385,-30.6264 111.6901,-25.1203 101.1804,-23.78 102.6385,-30.6264"></polygon>
<text text-anchor="start" x="7.5192" y="-79" font-family="Helvetica,sans-Serif" font-size="10.00" fill="#000000">startPattern() &nbsp;&nbsp;</text>
</g>
<!-- SETUPDEPTH -->
<g id="node5" class="node state regular">
<title>SETUPDEPTH</title>
<polygon fill="#ffffff" fill-opacity="0.003922" stroke="transparent" stroke-width="2" points="294.5192,-100 192.5192,-100 192.5192,-64 294.5192,-64 294.5192,-100"></polygon>
<text text-anchor="start" x="203.1872" y="-78.2" font-family="Helvetica,sans-Serif" font-size="12.00" fill="#000000">SETUPDEPTH</text>
<path fill="none" stroke="#000000" stroke-width="2" d="M204.8525,-65C204.8525,-65 282.1858,-65 282.1858,-65 287.8525,-65 293.5192,-70.6667 293.5192,-76.3333 293.5192,-76.3333 293.5192,-87.6667 293.5192,-87.6667 293.5192,-93.3333 287.8525,-99 282.1858,-99 282.1858,-99 204.8525,-99 204.8525,-99 199.1858,-99 193.5192,-93.3333 193.5192,-87.6667 193.5192,-87.6667 193.5192,-76.3333 193.5192,-76.3333 193.5192,-70.6667 199.1858,-65 204.8525,-65"></path>
</g>
<!-- READY&#45;&gt;SETUPDEPTH -->
<g id="edge6" class="edge transition">
<title>READY-&gt;SETUPDEPTH</title>
<path fill="none" stroke="#000000" d="M61.4163,-151.8118C53.2998,-138.1495 46.3372,-119.8301 57.3932,-108 66.3755,-98.3888 162.5388,-102.1374 175.5192,-100 177.8576,-99.615 180.2322,-99.1848 182.6242,-98.7187"></path>
<polygon fill="#000000" stroke="#000000" points="183.4503,-102.1215 192.5066,-96.6228 181.998,-95.2738 183.4503,-102.1215"></polygon>
<text text-anchor="start" x="57.5192" y="-123" font-family="Helvetica,sans-Serif" font-size="10.00" fill="#000000">setupDepth() &nbsp;&nbsp;</text>
</g>
<!-- PATTERN&#45;&gt;UNDEFINED -->
<g id="edge10" class="edge transition">
<title>PATTERN-&gt;UNDEFINED</title>
<path fill="none" stroke="#000000" d="M189.3121,-19.7892C228.6654,-22.4326 285.9369,-28.8311 301.5192,-44 347.4489,-88.7113 326.1042,-132.8017 293.5192,-188 285.3638,-201.815 272.4914,-213.2765 259.4364,-222.2604"></path>
<polygon fill="#000000" stroke="#000000" points="257.3673,-219.4306 250.8788,-227.8062 261.1742,-225.3049 257.3673,-219.4306"></polygon>
<text text-anchor="start" x="326.5192" y="-123" font-family="Helvetica,sans-Serif" font-size="10.00" fill="#000000">disable() &nbsp;&nbsp;</text>
</g>
<!-- PATTERN&#45;&gt;READY -->
<g id="edge8" class="edge transition">
<title>PATTERN-&gt;READY</title>
<path fill="none" stroke="#000000" d="M132.4629,-36.0359C125.1842,-44.0703 117.1872,-53.9734 111.5212,-64 94.5014,-94.1182 96.7402,-106.6962 84.934,-142.2844"></path>
<polygon fill="#000000" stroke="#000000" points="81.5855,-141.2579 81.6095,-151.8527 88.1977,-143.5553 81.5855,-141.2579"></polygon>
<text text-anchor="start" x="112.5192" y="-91" font-family="Helvetica,sans-Serif" font-size="10.00" fill="#000000">stopMotion() &nbsp;&nbsp;</text>
<text text-anchor="start" x="112.5192" y="-79" font-family="Helvetica,sans-Serif" font-size="10.00" fill="#000000">moveToMin() &nbsp;&nbsp;</text>
<text text-anchor="start" x="112.5192" y="-67" font-family="Helvetica,sans-Serif" font-size="10.00" fill="#000000">moveToMax() &nbsp;&nbsp;</text>
</g>
<!-- PATTERN&#45;&gt;PATTERN -->
<g id="edge11" class="edge transition">
<title>PATTERN-&gt;PATTERN</title>
<path fill="none" stroke="#000000" d="M189.2136,-23.9967C201.4029,-23.9052 211.0192,-21.9063 211.0192,-18 211.0192,-15.2534 206.265,-13.4498 199.2051,-12.5891"></path>
<polygon fill="#000000" stroke="#000000" points="199.4014,-9.0947 189.2136,-12.0033 198.9916,-16.0827 199.4014,-9.0947"></polygon>
<text text-anchor="start" x="211.0192" y="-15" font-family="Helvetica,sans-Serif" font-size="10.00" fill="#000000">applyNewSettingsNow() &nbsp;&nbsp;</text>
</g>
<!-- PATTERN&#45;&gt;SETUPDEPTH -->
<g id="edge9" class="edge transition">
<title>PATTERN-&gt;SETUPDEPTH</title>
<path fill="none" stroke="#000000" d="M146.0853,-36.1131C145.46,-42.9574 146.1651,-50.4298 150.3932,-56 151.0274,-56.8355 165.3716,-60.9844 182.6199,-65.7311"></path>
<polygon fill="#000000" stroke="#000000" points="181.8635,-69.1527 192.4324,-68.4124 183.7087,-62.4002 181.8635,-69.1527"></polygon>
<text text-anchor="start" x="150.5192" y="-47" font-family="Helvetica,sans-Serif" font-size="10.00" fill="#000000">setupDepth() &nbsp;&nbsp;</text>
</g>
<!-- SETUPDEPTH&#45;&gt;UNDEFINED -->
<g id="edge7" class="edge transition">
<title>SETUPDEPTH-&gt;UNDEFINED</title>
<path fill="none" stroke="#000000" d="M244.2247,-100.4103C244.6611,-125.6046 243.5784,-172.2044 229.3609,-218.0029"></path>
<polygon fill="#000000" stroke="#000000" points="225.9522,-217.1622 226.1235,-227.7557 232.5958,-219.3676 225.9522,-217.1622"></polygon>
<text text-anchor="start" x="241.5192" y="-167" font-family="Helvetica,sans-Serif" font-size="10.00" fill="#000000">disable() &nbsp;&nbsp;</text>
</g>
<!-- SETUPDEPTH&#45;&gt;READY -->
<g id="edge12" class="edge transition">
<title>SETUPDEPTH-&gt;READY</title>
<path fill="none" stroke="#000000" d="M192.0952,-95.8142C177.9982,-100.0238 164.8556,-104.4676 158.5212,-108 137.3413,-119.8108 137.0829,-129.6703 117.5192,-144 116.4899,-144.7539 115.4378,-145.5065 114.369,-146.2556"></path>
<polygon fill="#000000" stroke="#000000" points="112.3122,-143.4205 105.9456,-151.8891 116.2037,-149.2392 112.3122,-143.4205"></polygon>
<text text-anchor="start" x="159.5192" y="-135" font-family="Helvetica,sans-Serif" font-size="10.00" fill="#000000">stopMotion() &nbsp;&nbsp;</text>
<text text-anchor="start" x="159.5192" y="-123" font-family="Helvetica,sans-Serif" font-size="10.00" fill="#000000">moveToMin() &nbsp;&nbsp;</text>
<text text-anchor="start" x="159.5192" y="-111" font-family="Helvetica,sans-Serif" font-size="10.00" fill="#000000">moveToMax() &nbsp;&nbsp;</text>
</g>
<!-- SETUPDEPTH&#45;&gt;PATTERN -->
<g id="edge13" class="edge transition">
<title>SETUPDEPTH-&gt;PATTERN</title>
<path fill="none" stroke="#000000" d="M234.2796,-63.9617C229.9679,-56.9655 224.2835,-49.3642 217.5192,-44 211.8062,-39.4696 205.2102,-35.6527 198.432,-32.4597"></path>
<polygon fill="#000000" stroke="#000000" points="199.7125,-29.2007 189.1419,-28.4838 196.9583,-35.6361 199.7125,-29.2007"></polygon>
<text text-anchor="start" x="229.5192" y="-47" font-family="Helvetica,sans-Serif" font-size="10.00" fill="#000000">startPattern() &nbsp;&nbsp;</text>
</g>
</g>
</svg>