<!DOCTYPE svg [<!ENTITY nbsp "&#160;">]><svg width="682pt" height="400pt" viewBox="0.00 0.00 681.51 400.00" xmlns="http://www.w3.org/2000/svg" xmlns:xlink="http://www.w3.org/1999/xlink">
<g id="graph0" class="graph" transform="scale(1 1) rotate(0) translate(4 396)">
<title>state transitions</title>
<polygon fill="#ffffff" stroke="transparent" points="-4,4 -4,-396 677.5061,-396 677.5061,4 -4,4"></polygon>
<!-- initial -->
<g id="node1" class="node state initial">
<title>initial</title>
<ellipse fill="#000000" stroke="#000000" stroke-width="2" cx="489.2636" cy="-386.5" rx="5.5" ry="5.5"></ellipse>
</g>
<!-- SERVO_DISABLED -->
<g id="node2" class="node state regular">
<title>SERVO_DISABLED</title>
<polygon fill="#ffffff" fill-opacity="0.003922" stroke="transparent" stroke-width="2" points="554.2636,-353 424.2636,-353 424.2636,-317 554.2636,-317 554.2636,-353"></polygon>
<text text-anchor="start" x="435.254" y="-331.2" font-family="Helvetica,sans-Serif" font-size="12.00" fill="#000000">SERVO_DISABLED</text>
<path fill="none" stroke="#000000" stroke-width="2" d="M436.597,-318C436.597,-318 541.9303,-318 541.9303,-318 547.597,-318 553.2636,-323.6667 553.2636,-329.3333 553.2636,-329.3333 553.2636,-340.6667 553.2636,-340.6667 553.2636,-346.3333 547.597,-352 541.9303,-352 541.9303,-352 436.597,-352 436.597,-352 430.9303,-352 425.2636,-346.3333 425.2636,-340.6667 425.2636,-340.6667 425.2636,-329.3333 425.2636,-329.3333 425.2636,-323.6667 430.9303,-318 436.597,-318"></path>
</g>
<!-- initial&#45;&gt;SERVO_DISABLED -->
<g id="edge1" class="edge transition">
<title>initial-&gt;SERVO_DISABLED</title>
<path fill="none" stroke="#000000" d="M489.2636,-380.9886C489.2636,-376.6293 489.2636,-370.1793 489.2636,-363.4801"></path>
<polygon fill="#000000" stroke="#000000" points="492.7637,-363.0122 489.2636,-353.0122 485.7637,-363.0122 492.7637,-363.0122"></polygon>
<text text-anchor="start" x="489.2636" y="-364" font-family="Helvetica,sans-Serif" font-size="10.00" fill="#000000">begin() &nbsp;&nbsp;</text>
</g>
<!-- SERVO_READY -->
<g id="node3" class="node state regular">
<title>SERVO_READY</title>
<polygon fill="#ffffff" fill-opacity="0.003922" stroke="transparent" stroke-width="2" points="392.2636,-277 280.2636,-277 280.2636,-241 392.2636,-241 392.2636,-277"></polygon>
<text text-anchor="start" x="291.2582" y="-255.2" font-family="Helvetica,sans-Serif" font-size="12.00" fill="#000000">SERVO_READY</text>
<path fill="none" stroke="#000000" stroke-width="2" d="M292.597,-242C292.597,-242 379.9303,-242 379.9303,-242 385.597,-242 391.2636,-247.6667 391.2636,-253.3333 391.2636,-253.3333 391.2636,-264.6667 391.2636,-264.6667 391.2636,-270.3333 385.597,-276 379.9303,-276 379.9303,-276 292.597,-276 292.597,-276 286.9303,-276 281.2636,-270.3333 281.2636,-264.6667 281.2636,-264.6667 281.2636,-253.3333 281.2636,-253.3333 281.2636,-247.6667 286.9303,-242 292.597,-242"></path>
</g>
<!-- SERVO_DISABLED&#45;&gt;SERVO_READY -->
<g id="edge2" class="edge transition">
<title>SERVO_DISABLED-&gt;SERVO_READY</title>
<path fill="none" stroke="#000000" d="M423.9401,-331.2815C389.5487,-327.8728 352.1871,-321.3702 340.8016,-309 335.4661,-303.203 333.3326,-295.2661 332.8052,-287.4232"></path>
<polygon fill="#000000" stroke="#000000" points="336.3056,-287.3885 332.9027,-277.355 329.3059,-287.3206 336.3056,-287.3885"></polygon>
<text text-anchor="start" x="341.2636" y="-300" font-family="Helvetica,sans-Serif" font-size="10.00" fill="#000000">enableAndHome() &nbsp;&nbsp;</text>
<text text-anchor="start" x="341.2636" y="-288" font-family="Helvetica,sans-Serif" font-size="10.00" fill="#000000">thisIsHome() &nbsp;&nbsp;</text>
</g>
<!-- SERVO_ERROR -->
<g id="node6" class="node state regular">
<title>SERVO_ERROR</title>
<polygon fill="#ffffff" fill-opacity="0.003922" stroke="transparent" stroke-width="2" points="558.2636,-125 444.2636,-125 444.2636,-89 558.2636,-89 558.2636,-125"></polygon>
<text text-anchor="start" x="455.2622" y="-103.2" font-family="Helvetica,sans-Serif" font-size="12.00" fill="#000000">SERVO_ERROR</text>
<path fill="none" stroke="#000000" stroke-width="2" d="M456.597,-90C456.597,-90 545.9303,-90 545.9303,-90 551.597,-90 557.2636,-95.6667 557.2636,-101.3333 557.2636,-101.3333 557.2636,-112.6667 557.2636,-112.6667 557.2636,-118.3333 551.597,-124 545.9303,-124 545.9303,-124 456.597,-124 456.597,-124 450.9303,-124 445.2636,-118.3333 445.2636,-112.6667 445.2636,-112.6667 445.2636,-101.3333 445.2636,-101.3333 445.2636,-95.6667 450.9303,-90 456.597,-90"></path>
</g>
<!-- SERVO_DISABLED&#45;&gt;SERVO_ERROR -->
<g id="edge13" class="edge transition">
<title>SERVO_DISABLED-&gt;SERVO_ERROR</title>
<path fill="none" stroke="#000000" d="M525.1672,-316.8818C540.0047,-307.2757 555.5255,-293.9231 563.2636,-277 574.8643,-251.6296 561.7214,-173.0247 551.2636,-153 547.2213,-145.2597 541.3356,-138.1493 535.0106,-131.9518"></path>
<polygon fill="#000000" stroke="#000000" points="537.2272,-129.2371 527.4681,-125.1127 532.5252,-134.4227 537.2272,-129.2371"></polygon>
<text text-anchor="start" x="567.2636" y="-212" font-family="Helvetica,sans-Serif" font-size="10.00" fill="#000000">motorFault() &nbsp;&nbsp;</text>
</g>
<!-- SERVO_READY&#45;&gt;SERVO_DISABLED -->
<g id="edge4" class="edge transition">
<title>SERVO_READY-&gt;SERVO_DISABLED</title>
<path fill="none" stroke="#000000" d="M392.6067,-269.9946C405.7287,-273.7443 419.34,-278.6508 431.2636,-285 432.198,-285.4976 446.5682,-297.8842 460.7692,-310.2027"></path>
<polygon fill="#000000" stroke="#000000" points="458.7094,-313.0495 468.5548,-316.9634 463.299,-307.7641 458.7094,-313.0495"></polygon>
<text text-anchor="start" x="458.2636" y="-294" font-family="Helvetica,sans-Serif" font-size="10.00" fill="#000000">disable() &nbsp;&nbsp;</text>
</g>
<!-- SERVO_READY&#45;&gt;SERVO_READY -->
<g id="edge5" class="edge transition">
<title>SERVO_READY-&gt;SERVO_READY</title>
<path fill="none" stroke="#000000" d="M392.3556,-265.951C405.0087,-265.3248 414.2636,-263.0078 414.2636,-259 414.2636,-256.182 409.6882,-254.1999 402.5731,-253.0537"></path>
<polygon fill="#000000" stroke="#000000" points="402.6501,-249.5445 392.3556,-252.049 401.965,-256.5109 402.6501,-249.5445"></polygon>
<text text-anchor="start" x="414.2636" y="-262" font-family="Helvetica,sans-Serif" font-size="10.00" fill="#000000">moveToMin() &nbsp;&nbsp;</text>
<text text-anchor="start" x="414.2636" y="-250" font-family="Helvetica,sans-Serif" font-size="10.00" fill="#000000">moveToMax() &nbsp;&nbsp;</text>
</g>
<!-- SERVO_RUNNING -->
<g id="node4" class="node state regular">
<title>SERVO_RUNNING</title>
<polygon fill="#ffffff" fill-opacity="0.003922" stroke="transparent" stroke-width="2" points="210.2636,-189 84.2636,-189 84.2636,-153 210.2636,-153 210.2636,-189"></polygon>
<text text-anchor="start" x="94.9334" y="-167.2" font-family="Helvetica,sans-Serif" font-size="12.00" fill="#000000">SERVO_RUNNING</text>
<path fill="none" stroke="#000000" stroke-width="2" d="M96.597,-154C96.597,-154 197.9303,-154 197.9303,-154 203.597,-154 209.2636,-159.6667 209.2636,-165.3333 209.2636,-165.3333 209.2636,-176.6667 209.2636,-176.6667 209.2636,-182.3333 203.597,-188 197.9303,-188 197.9303,-188 96.597,-188 96.597,-188 90.9303,-188 85.2636,-182.3333 85.2636,-176.6667 85.2636,-176.6667 85.2636,-165.3333 85.2636,-165.3333 85.2636,-159.6667 90.9303,-154 96.597,-154"></path>
</g>
<!-- SERVO_READY&#45;&gt;SERVO_RUNNING -->
<g id="edge3" class="edge transition">
<title>SERVO_READY-&gt;SERVO_RUNNING</title>
<path fill="none" stroke="#000000" d="M280.0471,-255.6232C222.9401,-251.6055 141.5301,-244.0247 131.8186,-233 123.4294,-223.4763 125.624,-210.0811 130.6178,-198.1774"></path>
<polygon fill="#000000" stroke="#000000" points="133.8304,-199.5747 135.074,-189.0531 127.5405,-196.5027 133.8304,-199.5747"></polygon>
<text text-anchor="start" x="132.2636" y="-212" font-family="Helvetica,sans-Serif" font-size="10.00" fill="#000000">startMotion() &nbsp;&nbsp;</text>
</g>
<!-- SERVO_SETUPDEPTH -->
<g id="node5" class="node state regular">
<title>SERVO_SETUPDEPTH</title>
<polygon fill="#ffffff" fill-opacity="0.003922" stroke="transparent" stroke-width="2" points="193.7636,-125 42.7636,-125 42.7636,-89 193.7636,-89 193.7636,-125"></polygon>
<text text-anchor="start" x="54.0932" y="-103.2" font-family="Helvetica,sans-Serif" font-size="12.00" fill="#000000">SERVO_SETUPDEPTH</text>
<path fill="none" stroke="#000000" stroke-width="2" d="M55.097,-90C55.097,-90 181.4303,-90 181.4303,-90 187.097,-90 192.7636,-95.6667 192.7636,-101.3333 192.7636,-101.3333 192.7636,-112.6667 192.7636,-112.6667 192.7636,-118.3333 187.097,-124 181.4303,-124 181.4303,-124 55.097,-124 55.097,-124 49.4303,-124 43.7636,-118.3333 43.7636,-112.6667 43.7636,-112.6667 43.7636,-101.3333 43.7636,-101.3333 43.7636,-95.6667 49.4303,-90 55.097,-90"></path>
</g>
<!-- SERVO_READY&#45;&gt;SERVO_SETUPDEPTH -->
<g id="edge6" class="edge transition">
<title>SERVO_READY-&gt;SERVO_SETUPDEPTH</title>
<path fill="none" stroke="#000000" d="M280.0549,-255.4275C195.1478,-248.7188 40.5165,-230.9363 7.1376,-189 -2.8265,-176.4814 -1.753,-166.3025 7.1376,-153 13.8453,-142.9638 23.1907,-135.1145 33.6405,-128.9763"></path>
<polygon fill="#000000" stroke="#000000" points="35.4422,-131.9828 42.6443,-124.2123 32.1684,-125.7955 35.4422,-131.9828"></polygon>
<text text-anchor="start" x="7.2636" y="-168" font-family="Helvetica,sans-Serif" font-size="10.00" fill="#000000">setupDepth() &nbsp;&nbsp;</text>
</g>
<!-- SERVO_READY&#45;&gt;SERVO_ERROR -->
<g id="edge14" class="edge transition">
<title>SERVO_READY-&gt;SERVO_ERROR</title>
<path fill="none" stroke="#000000" d="M388.1704,-240.8684C413.7215,-229.552 443.0778,-212.5865 462.2636,-189 475.3618,-172.8974 485.3035,-151.6664 491.8706,-134.8423"></path>
<polygon fill="#000000" stroke="#000000" points="495.3175,-135.6146 495.5215,-125.0217 488.7562,-133.1753 495.3175,-135.6146"></polygon>
<text text-anchor="start" x="483.2636" y="-168" font-family="Helvetica,sans-Serif" font-size="10.00" fill="#000000">motorFault() &nbsp;&nbsp;</text>
</g>
<!-- SERVO_RUNNING&#45;&gt;SERVO_DISABLED -->
<g id="edge9" class="edge transition">
<title>SERVO_RUNNING-&gt;SERVO_DISABLED</title>
<path fill="none" stroke="#000000" d="M210.6177,-175.9873C298.4188,-184.1875 450.7696,-203.4866 490.2636,-241 510.8215,-260.5268 515.7347,-276.2066 506.7734,-307.2974"></path>
<polygon fill="#000000" stroke="#000000" points="503.3916,-306.3837 503.7157,-316.9736 510.0663,-308.493 503.3916,-306.3837"></polygon>
<text text-anchor="start" x="511.2636" y="-256" font-family="Helvetica,sans-Serif" font-size="10.00" fill="#000000">disable() &nbsp;&nbsp;</text>
</g>
<!-- SERVO_RUNNING&#45;&gt;SERVO_READY -->
<g id="edge7" class="edge transition">
<title>SERVO_RUNNING-&gt;SERVO_READY</title>
<path fill="none" stroke="#000000" d="M186.2392,-189.1474C215.8953,-202.9555 256.8566,-222.0274 288.4864,-236.7545"></path>
<polygon fill="#000000" stroke="#000000" points="287.0177,-239.9314 297.5606,-240.9795 289.9724,-233.5856 287.0177,-239.9314"></polygon>
<text text-anchor="start" x="281.2636" y="-224" font-family="Helvetica,sans-Serif" font-size="10.00" fill="#000000">stopMotion() &nbsp;&nbsp;</text>
<text text-anchor="start" x="281.2636" y="-212" font-family="Helvetica,sans-Serif" font-size="10.00" fill="#000000">moveToMin() &nbsp;&nbsp;</text>
<text text-anchor="start" x="281.2636" y="-200" font-family="Helvetica,sans-Serif" font-size="10.00" fill="#000000">moveToMax() &nbsp;&nbsp;</text>
</g>
<!-- SERVO_RUNNING&#45;&gt;SERVO_RUNNING -->
<g id="edge10" class="edge transition">
<title>SERVO_RUNNING-&gt;SERVO_RUNNING</title>
<path fill="none" stroke="#000000" d="M210.2801,-176.7711C223.0904,-176.1425 232.2636,-174.2188 232.2636,-171 232.2636,-168.7368 227.7285,-167.1139 220.5828,-166.1312"></path>
<polygon fill="#000000" stroke="#000000" points="220.5474,-162.6148 210.2801,-165.2289 219.9366,-169.5881 220.5474,-162.6148"></polygon>
<text text-anchor="start" x="232.2636" y="-168" font-family="Helvetica,sans-Serif" font-size="10.00" fill="#000000">applyNewSettingsNow() &nbsp;&nbsp;</text>
</g>
<!-- SERVO_RUNNING&#45;&gt;SERVO_SETUPDEPTH -->
<g id="edge8" class="edge transition">
<title>SERVO_RUNNING-&gt;SERVO_SETUPDEPTH</title>
<path fill="none" stroke="#000000" d="M83.9675,-153.7115C77.9865,-150.9972 73.3312,-148.0671 71.1376,-145 68.0979,-140.7496 68.0164,-136.7169 69.8588,-132.9776"></path>
<polygon fill="#000000" stroke="#000000" points="72.6285,-135.1268 76.5635,-125.2898 67.3529,-130.5258 72.6285,-135.1268"></polygon>
<text text-anchor="start" x="71.2636" y="-136" font-family="Helvetica,sans-Serif" font-size="10.00" fill="#000000">setupDepth() &nbsp;&nbsp;</text>
</g>
<!-- SERVO_RUNNING&#45;&gt;SERVO_ERROR -->
<g id="edge15" class="edge transition">
<title>SERVO_RUNNING-&gt;SERVO_ERROR</title>
<path fill="none" stroke="#000000" d="M210.5517,-159.5581C273.5078,-148.1762 369.7478,-130.7769 434.0464,-119.1523"></path>
<polygon fill="#000000" stroke="#000000" points="434.8639,-122.5613 444.0817,-117.338 433.6185,-115.673 434.8639,-122.5613"></polygon>
<text text-anchor="start" x="356.2636" y="-136" font-family="Helvetica,sans-Serif" font-size="10.00" fill="#000000">motorFault() &nbsp;&nbsp;</text>
</g>
<!-- SERVO_SETUPDEPTH&#45;&gt;SERVO_READY -->
<g id="edge11" class="edge transition">
<title>SERVO_SETUPDEPTH-&gt;SERVO_READY</title>
<path fill="none" stroke="#000000" d="M193.9815,-109.7262C264.1589,-113.053 359.4673,-119.9292 371.2636,-133 399.4334,-164.213 377.5271,-188.5089 356.2376,-231.7385"></path>
<polygon fill="#000000" stroke="#000000" points="352.9908,-230.4166 351.8628,-240.9512 359.3141,-233.4193 352.9908,-230.4166"></polygon>
<text text-anchor="start" x="385.2636" y="-180" font-family="Helvetica,sans-Serif" font-size="10.00" fill="#000000">stopMotion() &nbsp;&nbsp;</text>
<text text-anchor="start" x="385.2636" y="-168" font-family="Helvetica,sans-Serif" font-size="10.00" fill="#000000">moveToMin() &nbsp;&nbsp;</text>
<text text-anchor="start" x="385.2636" y="-156" font-family="Helvetica,sans-Serif" font-size="10.00" fill="#000000">moveToMax() &nbsp;&nbsp;</text>
</g>
<!-- SERVO_SETUPDEPTH&#45;&gt;SERVO_RUNNING -->
<g id="edge12" class="edge transition">
<title>SERVO_SETUPDEPTH-&gt;SERVO_RUNNING</title>
<path fill="none" stroke="#000000" d="M133.6993,-125.1234C135.4106,-127.6655 136.9912,-130.326 138.2636,-133 139.7202,-136.061 140.951,-139.3759 141.9889,-142.7287"></path>
<polygon fill="#000000" stroke="#000000" points="138.67,-143.8755 144.5558,-152.6851 145.4484,-142.1279 138.67,-143.8755"></polygon>
<text text-anchor="start" x="143.2636" y="-136" font-family="Helvetica,sans-Serif" font-size="10.00" fill="#000000">startMotion() &nbsp;&nbsp;</text>
</g>
<!-- i_note_tr_SERVO_ERROR_final_16 -->
<!-- SERVO_ERROR&#45;&gt;i_note_tr_SERVO_ERROR_final_16 -->
<g id="edge16" class="edge">
<title>SERVO_ERROR-&gt;i_note_tr_SERVO_ERROR_final_16</title>
<path fill="none" stroke="#000000" d="M501.2636,-88.68C501.2636,-80.7409 501.2636,-73.0275 501.2636,-72.0943"></path>
</g>
<!-- final -->
<g id="node7" class="node state final">
<title>final</title>
<ellipse fill="#000000" stroke="#000000" stroke-width="2" cx="501.2636" cy="-22" rx="5.5" ry="5.5"></ellipse>
<ellipse fill="none" stroke="#000000" stroke-width="2" cx="501.2636" cy="-22" rx="9.5" ry="9.5"></ellipse>
</g>
<!-- i_note_tr_SERVO_ERROR_final_16&#45;&gt;final -->
<g id="edge17" class="edge">
<title>i_note_tr_SERVO_ERROR_final_16-&gt;final</title>
<path fill="none" stroke="#000000" d="M501.2636,-71.8566C501.2636,-70.2277 501.2636,-55.0279 501.2636,-41.8348"></path>
<polygon fill="#000000" stroke="#000000" points="504.7637,-41.5665 501.2636,-31.5666 497.7637,-41.5666 504.7637,-41.5665"></polygon>
<text text-anchor="middle" x="502.6531" y="-55" font-family="Helvetica,sans-Serif" font-size="10.00" fill="#000000"> </text>
</g>
<!-- note_tr_SERVO_ERROR_final_16 -->
<g id="node9" class="node">
<title>note_tr_SERVO_ERROR_final_16</title>
<polygon fill="#ffffcc" stroke="#000000" points="667.7495,-44 532.7778,-44 532.7778,0 673.7495,0 673.7495,-38 667.7495,-44"></polygon>
<polyline fill="none" stroke="#000000" points="667.7495,-44 667.7495,-38 "></polyline>
<polyline fill="none" stroke="#000000" points="673.7495,-38 667.7495,-38 "></polyline>
<text text-anchor="start" x="541.0211" y="-31" font-family="Helvetica,sans-Serif" font-size="10.00" fill="#000000">SERVO_ERROR can only</text>
<text text-anchor="start" x="541.0211" y="-19" font-family="Helvetica,sans-Serif" font-size="10.00" fill="#000000">be cleared by removing</text>
<text text-anchor="start" x="541.0211" y="-7" font-family="Helvetica,sans-Serif" font-size="10.00" fill="#000000">power and resetting ESP32.</text>
</g>
<!-- i_note_tr_SERVO_ERROR_final_16&#45;&gt;note_tr_SERVO_ERROR_final_16 -->
<g id="edge18" class="edge">
<title>i_note_tr_SERVO_ERROR_final_16-&gt;note_tr_SERVO_ERROR_final_16</title>
<path fill="none" stroke="#000000" stroke-dasharray="5,2" d="M501.3376,-71.9638C502.9784,-71.1594 531.6421,-57.1086 558.1538,-44.1127"></path>
</g>
</g>
</svg>