<!DOCTYPE svg [<!ENTITY nbsp "&#160;">]><svg width="633pt" height="400pt" viewBox="0.00 0.00 633.02 400.00" xmlns="http://www.w3.org/2000/svg" xmlns:xlink="http://www.w3.org/1999/xlink">
<g id="graph0" class="graph" transform="scale(1 1) rotate(0) translate(4 396)">
<title>state transitions</title>
<polygon fill="#ffffff" stroke="transparent" points="-4,4 -4,-396 629.0173,-396 629.0173,4 -4,4"></polygon>
<!-- initial -->
<g id="node1" class="node state initial">
<title>initial</title>
<ellipse fill="#000000" stroke="#000000" stroke-width="2" cx="442.7748" cy="-386.5" rx="5.5" ry="5.5"></ellipse>
</g>
<!-- UNDEFINED -->
<g id="node2" class="node state regular">
<title>UNDEFINED</title>
<polygon fill="#ffffff" fill-opacity="0.003922" stroke="transparent" stroke-width="2" points="488.2748,-353 397.2748,-353 397.2748,-317 488.2748,-317 488.2748,-353"></polygon>
<text text-anchor="start" x="408.2822" y="-331.2" font-family="Helvetica,sans-Serif" font-size="12.00" fill="#000000">UNDEFINED</text>
<path fill="none" stroke="#000000" stroke-width="2" d="M409.6082,-318C409.6082,-318 475.9415,-318 475.9415,-318 481.6082,-318 487.2748,-323.6667 487.2748,-329.3333 487.2748,-329.3333 487.2748,-340.6667 487.2748,-340.6667 487.2748,-346.3333 481.6082,-352 475.9415,-352 475.9415,-352 409.6082,-352 409.6082,-352 403.9415,-352 398.2748,-346.3333 398.2748,-340.6667 398.2748,-340.6667 398.2748,-329.3333 398.2748,-329.3333 398.2748,-323.6667 403.9415,-318 409.6082,-318"></path>
</g>
<!-- initial&#45;&gt;UNDEFINED -->
<g id="edge1" class="edge transition">
<title>initial-&gt;UNDEFINED</title>
<path fill="none" stroke="#000000" d="M442.7748,-380.9886C442.7748,-376.6293 442.7748,-370.1793 442.7748,-363.4801"></path>
<polygon fill="#000000" stroke="#000000" points="446.2749,-363.0122 442.7748,-353.0122 439.2749,-363.0122 446.2749,-363.0122"></polygon>
<text text-anchor="start" x="442.7748" y="-364" font-family="Helvetica,sans-Serif" font-size="10.00" fill="#000000">begin() &nbsp;&nbsp;</text>
</g>
<!-- READY -->
<g id="node3" class="node state regular">
<title>READY</title>
<polygon fill="#ffffff" fill-opacity="0.003922" stroke="transparent" stroke-width="2" points="326.2748,-277 263.2748,-277 263.2748,-241 326.2748,-241 326.2748,-277"></polygon>
<text text-anchor="start" x="274.6078" y="-255.2" font-family="Helvetica,sans-Serif" font-size="12.00" fill="#000000">READY</text>
<path fill="none" stroke="#000000" stroke-width="2" d="M275.6082,-242C275.6082,-242 313.9415,-242 313.9415,-242 319.6082,-242 325.2748,-247.6667 325.2748,-253.3333 325.2748,-253.3333 325.2748,-264.6667 325.2748,-264.6667 325.2748,-270.3333 319.6082,-276 313.9415,-276 313.9415,-276 275.6082,-276 275.6082,-276 269.9415,-276 264.2748,-270.3333 264.2748,-264.6667 264.2748,-264.6667 264.2748,-253.3333 264.2748,-253.3333 264.2748,-247.6667 269.9415,-242 275.6082,-242"></path>
</g>
<!-- UNDEFINED&#45;&gt;READY -->
<g id="edge2" class="edge transition">
<title>UNDEFINED-&gt;READY</title>
<path fill="none" stroke="#000000" d="M397.0224,-333.2538C358.3655,-330.7023 307.273,-324.4271 294.3128,-309 289.2655,-302.992 287.8401,-294.9931 288.1082,-287.1583"></path>
<polygon fill="#000000" stroke="#000000" points="291.5952,-287.4719 289.2738,-277.1345 284.6421,-286.6632 291.5952,-287.4719"></polygon>
<text text-anchor="start" x="294.7748" y="-300" font-family="Helvetica,sans-Serif" font-size="10.00" fill="#000000">enableAndHome() &nbsp;&nbsp;</text>
<text text-anchor="start" x="294.7748" y="-288" font-family="Helvetica,sans-Serif" font-size="10.00" fill="#000000">thisIsHome() &nbsp;&nbsp;</text>
</g>
<!-- ERROR -->
<g id="node6" class="node state regular">
<title>ERROR</title>
<polygon fill="#ffffff" fill-opacity="0.003922" stroke="transparent" stroke-width="2" points="485.2748,-125 420.2748,-125 420.2748,-89 485.2748,-89 485.2748,-125"></polygon>
<text text-anchor="start" x="431.6118" y="-103.2" font-family="Helvetica,sans-Serif" font-size="12.00" fill="#000000">ERROR</text>
<path fill="none" stroke="#000000" stroke-width="2" d="M432.6082,-90C432.6082,-90 472.9415,-90 472.9415,-90 478.6082,-90 484.2748,-95.6667 484.2748,-101.3333 484.2748,-101.3333 484.2748,-112.6667 484.2748,-112.6667 484.2748,-118.3333 478.6082,-124 472.9415,-124 472.9415,-124 432.6082,-124 432.6082,-124 426.9415,-124 421.2748,-118.3333 421.2748,-112.6667 421.2748,-112.6667 421.2748,-101.3333 421.2748,-101.3333 421.2748,-95.6667 426.9415,-90 432.6082,-90"></path>
</g>
<!-- UNDEFINED&#45;&gt;ERROR -->
<g id="edge13" class="edge transition">
<title>UNDEFINED-&gt;ERROR</title>
<path fill="none" stroke="#000000" d="M472.8448,-316.9527C486.162,-307.0626 500.268,-293.4543 506.7748,-277 514.9012,-256.4503 516.5998,-182.6556 502.7748,-153 499.121,-145.1624 493.4594,-138.0412 487.2395,-131.869"></path>
<polygon fill="#000000" stroke="#000000" points="489.521,-129.2129 479.7684,-125.0731 484.8108,-134.3911 489.521,-129.2129"></polygon>
<text text-anchor="start" x="512.7748" y="-212" font-family="Helvetica,sans-Serif" font-size="10.00" fill="#000000">motorFault() &nbsp;&nbsp;</text>
</g>
<!-- READY&#45;&gt;UNDEFINED -->
<g id="edge4" class="edge transition">
<title>READY-&gt;UNDEFINED</title>
<path fill="none" stroke="#000000" d="M326.5714,-264.4688C344.4592,-268.4358 366.7499,-274.9134 384.7748,-285 398.5929,-292.7324 399.1313,-298.6394 411.1058,-309 411.6707,-309.4887 412.2425,-309.9811 412.8197,-310.476"></path>
<polygon fill="#000000" stroke="#000000" points="410.6053,-313.187 420.5052,-316.9608 415.1194,-307.837 410.6053,-313.187"></polygon>
<text text-anchor="start" x="411.7748" y="-294" font-family="Helvetica,sans-Serif" font-size="10.00" fill="#000000">disable() &nbsp;&nbsp;</text>
</g>
<!-- READY&#45;&gt;READY -->
<g id="edge5" class="edge transition">
<title>READY-&gt;READY</title>
<path fill="none" stroke="#000000" d="M326.3648,-266.1037C338.3562,-266.3777 348.2748,-264.0098 348.2748,-259 348.2748,-255.5558 343.5867,-253.3603 336.7601,-252.4134"></path>
<polygon fill="#000000" stroke="#000000" points="336.5264,-248.8976 326.3648,-251.8963 336.1785,-255.8889 336.5264,-248.8976"></polygon>
<text text-anchor="start" x="348.2748" y="-262" font-family="Helvetica,sans-Serif" font-size="10.00" fill="#000000">moveToMin() &nbsp;&nbsp;</text>
<text text-anchor="start" x="348.2748" y="-250" font-family="Helvetica,sans-Serif" font-size="10.00" fill="#000000">moveToMax() &nbsp;&nbsp;</text>
</g>
<!-- PATTERN -->
<g id="node4" class="node state regular">
<title>PATTERN</title>
<polygon fill="#ffffff" fill-opacity="0.003922" stroke="transparent" stroke-width="2" points="161.2748,-189 84.2748,-189 84.2748,-153 161.2748,-153 161.2748,-189"></polygon>
<text text-anchor="start" x="95.277" y="-167.2" font-family="Helvetica,sans-Serif" font-size="12.00" fill="#000000">PATTERN</text>
<path fill="none" stroke="#000000" stroke-width="2" d="M96.6082,-154C96.6082,-154 148.9415,-154 148.9415,-154 154.6082,-154 160.2748,-159.6667 160.2748,-165.3333 160.2748,-165.3333 160.2748,-176.6667 160.2748,-176.6667 160.2748,-182.3333 154.6082,-188 148.9415,-188 148.9415,-188 96.6082,-188 96.6082,-188 90.9415,-188 85.2748,-182.3333 85.2748,-176.6667 85.2748,-176.6667 85.2748,-165.3333 85.2748,-165.3333 85.2748,-159.6667 90.9415,-154 96.6082,-154"></path>
</g>
<!-- READY&#45;&gt;PATTERN -->
<g id="edge3" class="edge transition">
<title>READY-&gt;PATTERN</title>
<path fill="none" stroke="#000000" d="M263.2549,-257.1906C209.3453,-253.7716 104.145,-245.5594 93.1008,-233 84.1035,-222.7683 85.6389,-214.424 93.3915,-198.4265"></path>
<polygon fill="#000000" stroke="#000000" points="96.61,-199.8173 97.9895,-189.3126 90.3603,-196.6642 96.61,-199.8173"></polygon>
<text text-anchor="start" x="93.7748" y="-212" font-family="Helvetica,sans-Serif" font-size="10.00" fill="#000000">startPattern() &nbsp;&nbsp;</text>
</g>
<!-- SETUPDEPTH -->
<g id="node5" class="node state regular">
<title>SETUPDEPTH</title>
<polygon fill="#ffffff" fill-opacity="0.003922" stroke="transparent" stroke-width="2" points="142.7748,-125 40.7748,-125 40.7748,-89 142.7748,-89 142.7748,-125"></polygon>
<text text-anchor="start" x="51.4428" y="-103.2" font-family="Helvetica,sans-Serif" font-size="12.00" fill="#000000">SETUPDEPTH</text>
<path fill="none" stroke="#000000" stroke-width="2" d="M53.1082,-90C53.1082,-90 130.4415,-90 130.4415,-90 136.1082,-90 141.7748,-95.6667 141.7748,-101.3333 141.7748,-101.3333 141.7748,-112.6667 141.7748,-112.6667 141.7748,-118.3333 136.1082,-124 130.4415,-124 130.4415,-124 53.1082,-124 53.1082,-124 47.4415,-124 41.7748,-118.3333 41.7748,-112.6667 41.7748,-112.6667 41.7748,-101.3333 41.7748,-101.3333 41.7748,-95.6667 47.4415,-90 53.1082,-90"></path>
</g>
<!-- READY&#45;&gt;SETUPDEPTH -->
<g id="edge6" class="edge transition">
<title>READY-&gt;SETUPDEPTH</title>
<path fill="none" stroke="#000000" d="M263.1682,-256.2109C195.0031,-249.4656 37.8031,-229.7363 6.6488,-189 -3.071,-176.2907 -1.0197,-167.0426 6.6488,-153 12.3728,-142.5183 21.4827,-134.3108 31.6565,-127.9226"></path>
<polygon fill="#000000" stroke="#000000" points="33.4219,-130.9451 40.4017,-122.9744 29.9747,-124.8527 33.4219,-130.9451"></polygon>
<text text-anchor="start" x="6.7748" y="-168" font-family="Helvetica,sans-Serif" font-size="10.00" fill="#000000">setupDepth() &nbsp;&nbsp;</text>
</g>
<!-- READY&#45;&gt;ERROR -->
<g id="edge14" class="edge transition">
<title>READY-&gt;ERROR</title>
<path fill="none" stroke="#000000" d="M326.3538,-247.722C353.1432,-236.6417 390.7848,-217.2633 413.7748,-189 426.873,-172.8974 436.8147,-151.6664 443.3818,-134.8423"></path>
<polygon fill="#000000" stroke="#000000" points="446.8287,-135.6146 447.0327,-125.0217 440.2674,-133.1753 446.8287,-135.6146"></polygon>
<text text-anchor="start" x="434.7748" y="-168" font-family="Helvetica,sans-Serif" font-size="10.00" fill="#000000">motorFault() &nbsp;&nbsp;</text>
</g>
<!-- PATTERN&#45;&gt;UNDEFINED -->
<g id="edge9" class="edge transition">
<title>PATTERN-&gt;UNDEFINED</title>
<path fill="none" stroke="#000000" d="M161.5023,-173.0694C201.6646,-175.9183 265.9912,-182.4606 319.7748,-197 368.6199,-210.2043 384.6436,-210.183 424.7748,-241 444.376,-256.0519 450.7912,-261.6114 458.7748,-285 461.4938,-292.9654 461.7306,-296.913 458.7386,-307.1152"></path>
<polygon fill="#000000" stroke="#000000" points="455.3429,-306.2435 455.6326,-316.8344 462.0107,-308.3744 455.3429,-306.2435"></polygon>
<text text-anchor="start" x="454.7748" y="-256" font-family="Helvetica,sans-Serif" font-size="10.00" fill="#000000">disable() &nbsp;&nbsp;</text>
</g>
<!-- PATTERN&#45;&gt;READY -->
<g id="edge7" class="edge transition">
<title>PATTERN-&gt;READY</title>
<path fill="none" stroke="#000000" d="M157.9739,-189.0088C185.8692,-203.2808 224.8798,-223.2397 254.1079,-238.1937"></path>
<polygon fill="#000000" stroke="#000000" points="252.7307,-241.4205 263.2274,-242.8594 255.9191,-235.1888 252.7307,-241.4205"></polygon>
<text text-anchor="start" x="244.7748" y="-224" font-family="Helvetica,sans-Serif" font-size="10.00" fill="#000000">stopMotion() &nbsp;&nbsp;</text>
<text text-anchor="start" x="244.7748" y="-212" font-family="Helvetica,sans-Serif" font-size="10.00" fill="#000000">moveToMin() &nbsp;&nbsp;</text>
<text text-anchor="start" x="244.7748" y="-200" font-family="Helvetica,sans-Serif" font-size="10.00" fill="#000000">moveToMax() &nbsp;&nbsp;</text>
</g>
<!-- PATTERN&#45;&gt;PATTERN -->
<g id="edge10" class="edge transition">
<title>PATTERN-&gt;PATTERN</title>
<path fill="none" stroke="#000000" d="M161.4693,-176.9967C173.6586,-176.9052 183.2748,-174.9063 183.2748,-171 183.2748,-168.2534 178.5207,-166.4498 171.4608,-165.5891"></path>
<polygon fill="#000000" stroke="#000000" points="171.6571,-162.0947 161.4693,-165.0033 171.2473,-169.0827 171.6571,-162.0947"></polygon>
<text text-anchor="start" x="183.2748" y="-168" font-family="Helvetica,sans-Serif" font-size="10.00" fill="#000000">applyNewSettingsNow() &nbsp;&nbsp;</text>
</g>
<!-- PATTERN&#45;&gt;SETUPDEPTH -->
<g id="edge8" class="edge transition">
<title>PATTERN-&gt;SETUPDEPTH</title>
<path fill="none" stroke="#000000" d="M84.2135,-158.6957C64.8492,-152.4276 45.3177,-145.9276 44.6488,-145 41.5924,-140.7616 41.5007,-136.7362 43.3375,-133.0009"></path>
<polygon fill="#000000" stroke="#000000" points="46.1031,-135.1548 50.0366,-125.3171 40.8268,-130.5546 46.1031,-135.1548"></polygon>
<text text-anchor="start" x="44.7748" y="-136" font-family="Helvetica,sans-Serif" font-size="10.00" fill="#000000">setupDepth() &nbsp;&nbsp;</text>
</g>
<!-- PATTERN&#45;&gt;ERROR -->
<g id="edge15" class="edge transition">
<title>PATTERN-&gt;ERROR</title>
<path fill="none" stroke="#000000" d="M161.2759,-163.5331C223.4096,-151.4829 345.3537,-127.8332 410.0717,-115.2818"></path>
<polygon fill="#000000" stroke="#000000" points="410.7986,-118.7061 419.9493,-113.3662 409.4658,-111.8342 410.7986,-118.7061"></polygon>
<text text-anchor="start" x="317.7748" y="-136" font-family="Helvetica,sans-Serif" font-size="10.00" fill="#000000">motorFault() &nbsp;&nbsp;</text>
</g>
<!-- SETUPDEPTH&#45;&gt;READY -->
<g id="edge11" class="edge transition">
<title>SETUPDEPTH-&gt;READY</title>
<path fill="none" stroke="#000000" d="M142.9848,-109.2078C207.3827,-112.5194 311.0088,-119.8354 322.7748,-133 336.0855,-147.8929 330.0443,-200.2146 319.0482,-231.256"></path>
<polygon fill="#000000" stroke="#000000" points="315.6593,-230.2999 315.1499,-240.8825 322.1475,-232.9274 315.6593,-230.2999"></polygon>
<text text-anchor="start" x="330.7748" y="-180" font-family="Helvetica,sans-Serif" font-size="10.00" fill="#000000">stopMotion() &nbsp;&nbsp;</text>
<text text-anchor="start" x="330.7748" y="-168" font-family="Helvetica,sans-Serif" font-size="10.00" fill="#000000">moveToMin() &nbsp;&nbsp;</text>
<text text-anchor="start" x="330.7748" y="-156" font-family="Helvetica,sans-Serif" font-size="10.00" fill="#000000">moveToMax() &nbsp;&nbsp;</text>
</g>
<!-- SETUPDEPTH&#45;&gt;PATTERN -->
<g id="edge12" class="edge transition">
<title>SETUPDEPTH-&gt;PATTERN</title>
<path fill="none" stroke="#000000" d="M107.0859,-125.1846C108.8175,-127.7167 110.437,-130.3581 111.7748,-133 113.3747,-136.1594 114.7763,-139.5877 115.9946,-143.0484"></path>
<polygon fill="#000000" stroke="#000000" points="112.6742,-144.1588 118.9554,-152.6909 119.3659,-142.1041 112.6742,-144.1588"></polygon>
<text text-anchor="start" x="116.7748" y="-136" font-family="Helvetica,sans-Serif" font-size="10.00" fill="#000000">startPattern() &nbsp;&nbsp;</text>
</g>
<!-- i_note_tr_ERROR_final_16 -->
<!-- ERROR&#45;&gt;i_note_tr_ERROR_final_16 -->
<g id="edge16" class="edge">
<title>ERROR-&gt;i_note_tr_ERROR_final_16</title>
<path fill="none" stroke="#000000" d="M452.7748,-88.68C452.7748,-80.7409 452.7748,-73.0275 452.7748,-72.0943"></path>
</g>
<!-- final -->
<g id="node7" class="node state final">
<title>final</title>
<ellipse fill="#000000" stroke="#000000" stroke-width="2" cx="452.7748" cy="-22" rx="5.5" ry="5.5"></ellipse>
<ellipse fill="none" stroke="#000000" stroke-width="2" cx="452.7748" cy="-22" rx="9.5" ry="9.5"></ellipse>
</g>
<!-- i_note_tr_ERROR_final_16&#45;&gt;final -->
<g id="edge17" class="edge">
<title>i_note_tr_ERROR_final_16-&gt;final</title>
<path fill="none" stroke="#000000" d="M452.7748,-71.8566C452.7748,-70.2277 452.7748,-55.0279 452.7748,-41.8348"></path>
<polygon fill="#000000" stroke="#000000" points="456.2749,-41.5665 452.7748,-31.5666 449.2749,-41.5666 456.2749,-41.5665"></polygon>
<text text-anchor="middle" x="454.1643" y="-55" font-family="Helvetica,sans-Serif" font-size="10.00" fill="#000000"> </text>
</g>
<!-- note_tr_ERROR_final_16 -->
<g id="node9" class="node">
<title>note_tr_ERROR_final_16</title>
<polygon fill="#ffffcc" stroke="#000000" points="619.2607,-44 484.289,-44 484.289,0 625.2607,0 625.2607,-38 619.2607,-44"></polygon>
<polyline fill="none" stroke="#000000" points="619.2607,-44 619.2607,-38 "></polyline>
<polyline fill="none" stroke="#000000" points="625.2607,-38 619.2607,-38 "></polyline>
<text text-anchor="start" x="492.5323" y="-31" font-family="Helvetica,sans-Serif" font-size="10.00" fill="#000000">ERROR can only</text>
<text text-anchor="start" x="492.5323" y="-19" font-family="Helvetica,sans-Serif" font-size="10.00" fill="#000000">be cleared by removing</text>
<text text-anchor="start" x="492.5323" y="-7" font-family="Helvetica,sans-Serif" font-size="10.00" fill="#000000">power and resetting ESP32.</text>
</g>
<!-- i_note_tr_ERROR_final_16&#45;&gt;note_tr_ERROR_final_16 -->
<g id="edge18" class="edge">
<title>i_note_tr_ERROR_final_16-&gt;note_tr_ERROR_final_16</title>
<path fill="none" stroke="#000000" stroke-dasharray="5,2" d="M452.8488,-71.9638C454.4896,-71.1594 483.1533,-57.1086 509.665,-44.1127"></path>
</g>
</g>
</svg>